# xmcd
#
# Track frame offsets: 
#        150
#        13730
#        32042
#        56145
#        71807
#        85197
#        102802
#        117672
#        132365
#        145692
#        160300
#        174842
#
# Disc length: 2590 seconds
#
# Revision: 6
# Processed by: cddbd v1.5.2PL0 Copyright (c) Steve Scherf et al.
# Submitted via: ExactAudioCopy v0.99pb4
#
DISCID=a40a1c0c
DTITLE=Αλεξίου Χάρις - Ψίθυροι
DYEAR=2000
DGENRE=Vocal
TTITLE0=Αγαπάω κι αδιαγορώ
TTITLE1=Μικρή πατρίδα
TTITLE2=Μη τον ρωτάς τον ουρανό
TTITLE3=Πάρε με
TTITLE4=Ένα αστέρι πέφτει - πέφτει
TTITLE5=Πάτωμα
TTITLE6=Η πιο μεγάλη ώρα
TTITLE7=Λίγα ψίχουλα αγάπης σου γυρεύω
TTITLE8=Το αγριολούλουδο
TTITLE9=Πάρε τα χνάριαμου
TTITLE10=Μη κουραστείς να μ' αγαπάς
TTITLE11=Ζητάτε να σας πω
EXTD=
EXTT0=
EXTT1=
EXTT2=
EXTT3=
EXTT4=
EXTT5=
EXTT6=
EXTT7=
EXTT8=
EXTT9=
EXTT10=
EXTT11=
PLAYORDER=
